<?xml version="1.0" standalone="no"?>
<!DOCTYPE svg PUBLIC "-//W3C//DTD SVG 20010904//EN"
 "http://www.w3.org/TR/2001/REC-SVG-20010904/DTD/svg10.dtd">
<svg version="1.0" xmlns="http://www.w3.org/2000/svg"
 width="500.000000pt" height="500.000000pt" viewBox="0 0 500.000000 500.000000"
 preserveAspectRatio="xMidYMid meet">
<metadata>
Created by potrace 1.11, written by Peter Selinger 2001-2013
</metadata>
<g transform="translate(0.000000,500.000000) scale(0.100000,-0.100000)"
fill="#000000" stroke="none">
<path d="M2411 4735 c-1 -6 -91 -10 -249 -10 -170 0 -256 -3 -277 -12 -16 -6
-50 -31 -76 -55 -25 -24 -65 -61 -90 -83 -24 -22 -85 -76 -134 -121 -50 -44
-103 -92 -118 -105 -16 -13 -47 -41 -68 -62 -22 -20 -51 -44 -64 -53 -14 -9
-22 -20 -19 -25 3 -5 1 -9 -4 -9 -10 0 -46 -29 -113 -93 -33 -31 -41 -45 -44
-82 -2 -27 0 -45 7 -45 5 0 8 -7 4 -15 -3 -8 -1 -15 5 -15 6 0 7 -4 4 -10 -3
-5 -1 -10 4 -10 6 0 11 -6 11 -14 0 -13 66 -204 90 -261 4 -11 13 -36 20 -55
7 -19 16 -44 20 -55 21 -49 92 -251 93 -262 0 -7 3 -13 7 -13 4 0 7 -6 7 -12
1 -7 13 -44 28 -83 15 -38 28 -74 29 -80 2 -5 8 -23 14 -38 7 -16 12 -30 12
-32 0 -2 5 -16 12 -32 6 -15 12 -32 14 -38 1 -5 8 -23 15 -40 6 -16 14 -39 16
-49 2 -11 8 -25 14 -33 6 -7 8 -13 4 -13 -4 0 -2 -7 5 -15 7 -8 9 -15 5 -15
-4 0 -3 -6 2 -12 6 -7 16 -31 22 -53 7 -22 17 -49 22 -60 20 -45 149 -408 149
-421 0 -8 5 -14 10 -14 6 0 10 -9 10 -20 0 -11 4 -28 9 -38 5 -9 19 -44 31
-77 12 -33 26 -69 30 -80 5 -11 19 -51 32 -90 12 -38 26 -71 30 -73 5 -2 8
-14 8 -27 0 -13 5 -27 10 -30 6 -3 10 -17 10 -30 0 -13 5 -27 10 -30 6 -4 8
-11 5 -16 -4 -5 -1 -9 4 -9 6 0 10 -3 9 -8 -2 -8 31 -112 42 -127 3 -5 13 -30
20 -55 7 -25 18 -51 23 -57 5 -7 6 -13 2 -13 -4 0 -2 -7 5 -15 7 -8 9 -15 5
-15 -4 0 -3 -6 2 -12 6 -7 16 -31 22 -53 7 -22 17 -50 22 -62 5 -13 13 -33 18
-45 5 -13 16 -41 23 -63 7 -22 17 -43 23 -47 5 -4 7 -8 3 -8 -7 0 6 -43 32
-105 22 -53 45 -121 42 -127 -1 -5 2 -8 6 -8 4 0 8 -9 9 -21 1 -11 11 -38 22
-59 11 -21 17 -40 15 -43 -3 -3 3 -18 13 -33 10 -16 17 -31 17 -34 -2 -7 4
-26 27 -84 10 -27 19 -53 19 -58 0 -5 7 -25 16 -46 10 -20 19 -45 20 -55 2
-10 11 -31 19 -48 9 -16 13 -29 9 -29 -4 0 -2 -6 3 -12 12 -15 38 -89 35 -100
-3 -11 64 -37 84 -32 27 7 45 45 95 194 23 69 45 129 50 134 4 5 5 15 2 22 -3
8 -1 14 4 14 5 0 9 8 10 18 1 9 7 31 13 47 6 17 11 31 11 32 -1 3 12 39 35 98
4 11 8 22 9 25 18 64 42 127 50 132 5 4 7 8 3 8 -4 0 2 26 13 58 11 31 22 64
24 72 2 8 4 17 5 20 1 3 2 8 1 13 0 4 3 7 7 7 5 0 9 6 9 13 1 13 48 158 63
192 4 11 31 90 60 175 28 85 54 162 57 170 4 8 7 20 8 25 0 6 3 15 6 20 6 9
70 196 75 220 2 6 21 62 44 125 22 63 40 115 40 115 -1 0 9 33 17 55 6 15 7
19 14 50 2 8 7 17 11 20 4 3 9 17 12 30 3 14 15 52 26 85 12 33 23 67 25 75 7
26 30 85 39 98 4 7 5 16 2 19 -3 3 1 18 10 34 8 16 11 29 7 29 -5 0 -3 4 2 8
6 4 30 68 54 142 25 74 47 140 50 145 3 6 7 16 8 23 5 22 10 37 17 54 4 9 8
22 10 30 1 7 4 18 7 23 5 8 39 105 44 125 1 3 4 12 8 20 14 37 31 96 29 103
-1 4 3 7 10 7 6 0 9 2 6 6 -3 3 3 27 13 55 10 27 16 49 13 49 -4 0 -1 7 6 15
7 8 9 15 5 15 -4 0 -3 6 2 13 6 6 30 71 53 142 23 72 47 136 53 143 5 6 7 12
4 12 -5 0 21 82 40 130 3 8 8 23 9 32 2 10 5 21 5 25 5 19 -23 62 -72 115 -30
31 -88 94 -129 139 -41 45 -88 96 -105 114 -27 29 -170 184 -238 259 -82 90
-99 104 -124 108 -41 5 -540 1 -550 -5 -5 -3 -14 -3 -20 1 -6 4 -63 5 -127 2
-73 -3 -118 -1 -120 5 -3 7 -5 7 -5 0z m-35 -3658 c2 -7 6 -23 10 -37 6 -21 5
-23 -7 -13 -8 6 -16 26 -17 44 -2 30 9 35 14 6z"/>
</g>
</svg>
